<svg width="308" height="47" viewBox="0 0 308 47" fill="none" xmlns="http://www.w3.org/2000/svg">
<path d="M17.06 10.66C17.06 17.62 16.68 23.88 15.92 29.44C15.2 34.96 14.08 39.12 12.56 41.92C10.96 44.88 8.66 46.36 5.66 46.36C3.62 46.36 2.08 46.24 1.04 46L0.5 40.6C2.1 40.76 3.62 40.84 5.06 40.84C5.86 40.84 6.54 40.66 7.1 40.3C7.7 39.94 8.22 39.3 8.66 38.38C9.94 36.14 10.92 32.72 11.6 28.12C12.32 23.52 12.68 17.32 12.68 9.52V5.92L5.48 5.14V1.42H42.62V5.14L37.1 5.92V41.8L42.92 42.4V46H22.22V42.4L28.4 41.74L28.46 5.92H17.06V10.66ZM65.5344 46.66C59.0144 46.66 54.1344 44.62 50.8944 40.54C47.6544 36.46 46.0344 30.9 46.0344 23.86C46.0344 19.26 46.8744 15.22 48.5544 11.74C50.2744 8.26 52.6744 5.58 55.7544 3.7C58.8344 1.82 62.3744 0.879998 66.3744 0.879998C72.9744 0.879998 77.9144 2.84 81.1944 6.76C84.5144 10.64 86.1744 16.08 86.1744 23.08C86.1744 27.72 85.2944 31.84 83.5344 35.44C81.8144 39 79.3944 41.76 76.2744 43.72C73.1544 45.68 69.5744 46.66 65.5344 46.66ZM66.1344 4.54C62.8544 4.54 60.2944 6.16 58.4544 9.4C56.6144 12.64 55.6944 17.44 55.6944 23.8C55.6944 30.08 56.5744 34.86 58.3344 38.14C60.1344 41.38 62.6944 43 66.0144 43C69.2544 43 71.7944 41.3 73.6344 37.9C75.4744 34.46 76.3944 29.52 76.3944 23.08C76.3944 16.84 75.5144 12.2 73.7544 9.16C71.9944 6.08 69.4544 4.54 66.1344 4.54ZM122.387 1.42L123.107 18.28H117.947L115.907 5.86L104.867 5.26V41.74L114.707 42.46V46H89.5067V42.46L96.0467 41.74V5.98L89.6267 5.08V1.42H122.387ZM144.812 46.66C138.292 46.66 133.412 44.62 130.172 40.54C126.932 36.46 125.312 30.9 125.312 23.86C125.312 19.26 126.152 15.22 127.832 11.74C129.552 8.26 131.952 5.58 135.032 3.7C138.112 1.82 141.652 0.879998 145.652 0.879998C152.252 0.879998 157.192 2.84 160.472 6.76C163.792 10.64 165.452 16.08 165.452 23.08C165.452 27.72 164.572 31.84 162.812 35.44C161.092 39 158.672 41.76 155.552 43.72C152.432 45.68 148.852 46.66 144.812 46.66ZM145.412 4.54C142.132 4.54 139.572 6.16 137.732 9.4C135.892 12.64 134.972 17.44 134.972 23.8C134.972 30.08 135.852 34.86 137.612 38.14C139.412 41.38 141.972 43 145.292 43C148.532 43 151.072 41.3 152.912 37.9C154.752 34.46 155.672 29.52 155.672 23.08C155.672 16.84 154.792 12.2 153.032 9.16C151.272 6.08 148.732 4.54 145.412 4.54ZM184.084 5.38L175.504 5.68L173.164 18.76H168.124L169.144 1.42H207.844L208.564 18.76H203.824L201.484 5.68L193.024 5.38V41.8L201.424 42.4V46H176.404V42.4L184.084 41.8V5.38ZM231.239 1.42V5.14L225.719 5.92V33.88L229.739 27.16L245.039 7.36V5.92L239.999 5.14V1.42H258.359V5.14L253.739 5.92V41.8L258.539 42.4V46H239.999V42.4L245.039 41.8V13.48L241.439 19.96L225.719 39.94V41.8L231.059 42.4V46H212.339V42.4L217.079 41.8V5.92L212.459 5.14V1.42H231.239ZM307.054 1.42V5.14L302.254 5.92V41.74L307.414 42.4V46H288.934V42.4L293.494 41.8V5.56H276.814V41.8L281.854 42.4V46H263.434V42.4L268.114 41.8V5.92L263.254 5.14V1.42H307.054Z" fill="#8A8A8A"/>
</svg>
